<svg id="visual" viewBox="0 0 960 540" width="960" height="540" xmlns="http://www.w3.org/2000/svg" xmlns:xlink="http://www.w3.org/1999/xlink" version="1.1"><g stroke-width="1" stroke-linejoin="bevel"><path d="M450 256.4L430 196.3L409 271.6Z" fill="#f6339a" stroke="#f6339a"></path><path d="M430 196.3L313 234.6L409 271.6Z" fill="#58066f" stroke="#58066f"></path><path d="M342 165.4L313 234.6L430 196.3Z" fill="#b2198d" stroke="#b2198d"></path><path d="M342 165.4L311 191.3L313 234.6Z" fill="#b2198d" stroke="#b2198d"></path><path d="M327 413.7L494 326.7L409 271.6Z" fill="#29035c" stroke="#29035c"></path><path d="M409 271.6L494 326.7L450 256.4Z" fill="#b2198d" stroke="#b2198d"></path><path d="M450 256.4L525 168.3L430 196.3Z" fill="#f6339a" stroke="#f6339a"></path><path d="M558 228.4L525 168.3L450 256.4Z" fill="#b2198d" stroke="#b2198d"></path><path d="M327 73.1L320 78.1L342 165.4Z" fill="#f6339a" stroke="#f6339a"></path><path d="M494 326.7L529 302.7L450 256.4Z" fill="#29035c" stroke="#29035c"></path><path d="M313 234.6L321 326.6L409 271.6Z" fill="#850d80" stroke="#850d80"></path><path d="M529 302.7L558 228.4L450 256.4Z" fill="#0a0251" stroke="#0a0251"></path><path d="M254 74.1L254 205.3L311 191.3Z" fill="#6e0978" stroke="#6e0978"></path><path d="M311 191.3L254 205.3L313 234.6Z" fill="#e02997" stroke="#e02997"></path><path d="M313 234.6L210 307.7L321 326.6Z" fill="#850d80" stroke="#850d80"></path><path d="M529 302.7L596 236.3L558 228.4Z" fill="#f6339a" stroke="#f6339a"></path><path d="M558 228.4L608 152.1L525 168.3Z" fill="#9c1287" stroke="#9c1287"></path><path d="M327 73.1L342 165.4L430 196.3Z" fill="#e02997" stroke="#e02997"></path><path d="M342 165.4L320 78.1L311 191.3Z" fill="#f6339a" stroke="#f6339a"></path><path d="M406 0L327 73.1L430 196.3Z" fill="#0a0251" stroke="#0a0251"></path><path d="M222 228.4L227 231.3L254 205.3Z" fill="#c92092" stroke="#c92092"></path><path d="M254 205.3L227 231.3L313 234.6Z" fill="#c92092" stroke="#c92092"></path><path d="M608 152.1L565 106.3L525 168.3Z" fill="#410466" stroke="#410466"></path><path d="M525 168.3L546 78.1L430 196.3Z" fill="#29035c" stroke="#29035c"></path><path d="M128 95.3L222 228.4L254 205.3Z" fill="#c92092" stroke="#c92092"></path><path d="M240 417.9L327 413.7L321 326.6Z" fill="#29035c" stroke="#29035c"></path><path d="M627 321.6L616 242.4L596 236.3Z" fill="#29035c" stroke="#29035c"></path><path d="M596 236.3L608 152.1L558 228.4Z" fill="#58066f" stroke="#58066f"></path><path d="M565 106.3L546 78.1L525 168.3Z" fill="#9c1287" stroke="#9c1287"></path><path d="M210 307.7L313 234.6L227 231.3Z" fill="#29035c" stroke="#29035c"></path><path d="M321 326.6L327 413.7L409 271.6Z" fill="#9c1287" stroke="#9c1287"></path><path d="M616 242.4L608 152.1L596 236.3Z" fill="#850d80" stroke="#850d80"></path><path d="M565 106.3L610 0L546 78.1Z" fill="#850d80" stroke="#850d80"></path><path d="M197 251.6L210 307.7L227 231.3Z" fill="#9c1287" stroke="#9c1287"></path><path d="M222 228.4L197 251.6L227 231.3Z" fill="#e02997" stroke="#e02997"></path><path d="M96 157.1L197 251.6L222 228.4Z" fill="#410466" stroke="#410466"></path><path d="M627 373.6L627 321.6L529 302.7Z" fill="#0a0251" stroke="#0a0251"></path><path d="M529 302.7L627 321.6L596 236.3Z" fill="#6e0978" stroke="#6e0978"></path><path d="M616 242.4L655 232.3L608 152.1Z" fill="#f6339a" stroke="#f6339a"></path><path d="M627 373.6L529 302.7L494 326.7Z" fill="#29035c" stroke="#29035c"></path><path d="M322 0L254 74.1L320 78.1Z" fill="#0a0251" stroke="#0a0251"></path><path d="M320 78.1L254 74.1L311 191.3Z" fill="#9c1287" stroke="#9c1287"></path><path d="M197 251.6L199 311.6L210 307.7Z" fill="#58066f" stroke="#58066f"></path><path d="M210 307.7L240 417.9L321 326.6Z" fill="#b2198d" stroke="#b2198d"></path><path d="M450 0L406 0L430 196.3Z" fill="#29035c" stroke="#29035c"></path><path d="M327 73.1L322 0L320 78.1Z" fill="#c92092" stroke="#c92092"></path><path d="M546 78.1L450 0L430 196.3Z" fill="#410466" stroke="#410466"></path><path d="M627 321.6L655 232.3L616 242.4Z" fill="#58066f" stroke="#58066f"></path><path d="M298 467.7L383 471.9L327 413.7Z" fill="#c92092" stroke="#c92092"></path><path d="M327 413.7L383 471.9L494 326.7Z" fill="#b2198d" stroke="#b2198d"></path><path d="M533 498.9L627 373.6L494 326.7Z" fill="#c92092" stroke="#c92092"></path><path d="M692 312.7L684 229.4L655 232.3Z" fill="#c92092" stroke="#c92092"></path><path d="M627 373.6L647 339.7L627 321.6Z" fill="#58066f" stroke="#58066f"></path><path d="M406 0L322 0L327 73.1Z" fill="#9c1287" stroke="#9c1287"></path><path d="M199 311.6L240 417.9L210 307.7Z" fill="#b2198d" stroke="#b2198d"></path><path d="M240 417.9L271 444.9L327 413.7Z" fill="#c92092" stroke="#c92092"></path><path d="M383 471.9L485 484.9L494 326.7Z" fill="#c92092" stroke="#c92092"></path><path d="M271 444.9L298 467.7L327 413.7Z" fill="#58066f" stroke="#58066f"></path><path d="M483 540L533 498.9L485 484.9Z" fill="#9c1287" stroke="#9c1287"></path><path d="M692 312.7L655 232.3L627 321.6Z" fill="#e02997" stroke="#e02997"></path><path d="M655 232.3L698 141.1L608 152.1Z" fill="#9c1287" stroke="#9c1287"></path><path d="M686 17.1L610 0L565 106.3Z" fill="#f6339a" stroke="#f6339a"></path><path d="M760 362.6L692 312.7L647 339.7Z" fill="#410466" stroke="#410466"></path><path d="M647 339.7L692 312.7L627 321.6Z" fill="#0a0251" stroke="#0a0251"></path><path d="M483 540L485 484.9L383 471.9Z" fill="#410466" stroke="#410466"></path><path d="M485 484.9L533 498.9L494 326.7Z" fill="#c92092" stroke="#c92092"></path><path d="M627 373.6L661 449.9L647 339.7Z" fill="#58066f" stroke="#58066f"></path><path d="M322 0L248 0L254 74.1Z" fill="#9c1287" stroke="#9c1287"></path><path d="M254 74.1L128 95.3L254 205.3Z" fill="#b2198d" stroke="#b2198d"></path><path d="M271 444.9L266 540L298 467.7Z" fill="#f6339a" stroke="#f6339a"></path><path d="M240 417.9L210 440.7L271 444.9Z" fill="#e02997" stroke="#e02997"></path><path d="M137 398.9L210 440.7L240 417.9Z" fill="#410466" stroke="#410466"></path><path d="M727 160.1L698 141.1L684 229.4Z" fill="#f6339a" stroke="#f6339a"></path><path d="M684 229.4L698 141.1L655 232.3Z" fill="#9c1287" stroke="#9c1287"></path><path d="M546 78.1L610 0L450 0Z" fill="#e02997" stroke="#e02997"></path><path d="M686 17.1L565 106.3L608 152.1Z" fill="#f6339a" stroke="#f6339a"></path><path d="M318 540L383 471.9L298 467.7Z" fill="#9c1287" stroke="#9c1287"></path><path d="M318 540L362 540L383 471.9Z" fill="#850d80" stroke="#850d80"></path><path d="M362 540L483 540L383 471.9Z" fill="#410466" stroke="#410466"></path><path d="M743 224.6L727 160.1L684 229.4Z" fill="#6e0978" stroke="#6e0978"></path><path d="M698 141.1L686 17.1L608 152.1Z" fill="#410466" stroke="#410466"></path><path d="M147 0L128 95.3L254 74.1Z" fill="#850d80" stroke="#850d80"></path><path d="M48 391.6L137 398.9L199 311.6Z" fill="#0a0251" stroke="#0a0251"></path><path d="M199 311.6L137 398.9L240 417.9Z" fill="#850d80" stroke="#850d80"></path><path d="M266 540L318 540L298 467.7Z" fill="#850d80" stroke="#850d80"></path><path d="M692 312.7L743 224.6L684 229.4Z" fill="#f6339a" stroke="#f6339a"></path><path d="M533 498.9L661 449.9L627 373.6Z" fill="#0a0251" stroke="#0a0251"></path><path d="M692 312.7L760 362.6L743 224.6Z" fill="#29035c" stroke="#29035c"></path><path d="M589 540L661 449.9L533 498.9Z" fill="#0a0251" stroke="#0a0251"></path><path d="M0 256.6L199 311.6L197 251.6Z" fill="#410466" stroke="#410466"></path><path d="M221 540L266 540L271 444.9Z" fill="#b2198d" stroke="#b2198d"></path><path d="M128 95.3L96 157.1L222 228.4Z" fill="#29035c" stroke="#29035c"></path><path d="M7 142.1L88 161.4L0 103.1Z" fill="#c92092" stroke="#c92092"></path><path d="M96 157.1L88 161.4L197 251.6Z" fill="#e02997" stroke="#e02997"></path><path d="M743 224.6L754 185.4L727 160.1Z" fill="#6e0978" stroke="#6e0978"></path><path d="M721 0L686 17.1L744 0Z" fill="#6e0978" stroke="#6e0978"></path><path d="M221 540L271 444.9L210 440.7Z" fill="#b2198d" stroke="#b2198d"></path><path d="M699 0L686 17.1L721 0Z" fill="#410466" stroke="#410466"></path><path d="M483 540L577 540L533 498.9Z" fill="#850d80" stroke="#850d80"></path><path d="M577 540L589 540L533 498.9Z" fill="#850d80" stroke="#850d80"></path><path d="M248 0L147 0L254 74.1Z" fill="#c92092" stroke="#c92092"></path><path d="M7 142.1L60 178.4L88 161.4Z" fill="#29035c" stroke="#29035c"></path><path d="M48 391.6L138 460.7L137 398.9Z" fill="#29035c" stroke="#29035c"></path><path d="M137 398.9L138 460.7L210 440.7Z" fill="#410466" stroke="#410466"></path><path d="M88 161.4L96 157.1L0 103.1Z" fill="#0a0251" stroke="#0a0251"></path><path d="M88 161.4L60 178.4L197 251.6Z" fill="#b2198d" stroke="#b2198d"></path><path d="M138 460.7L221 540L210 440.7Z" fill="#850d80" stroke="#850d80"></path><path d="M645 540L695 471.9L661 449.9Z" fill="#f6339a" stroke="#f6339a"></path><path d="M661 449.9L760 362.6L647 339.7Z" fill="#0a0251" stroke="#0a0251"></path><path d="M743 224.6L843 232.4L754 185.4Z" fill="#410466" stroke="#410466"></path><path d="M686 17.1L698 141.1L744 0Z" fill="#f6339a" stroke="#f6339a"></path><path d="M686 17.1L699 0L610 0Z" fill="#850d80" stroke="#850d80"></path><path d="M732 459.9L760 362.6L661 449.9Z" fill="#6e0978" stroke="#6e0978"></path><path d="M589 540L645 540L661 449.9Z" fill="#29035c" stroke="#29035c"></path><path d="M744 0L698 141.1L727 160.1Z" fill="#6e0978" stroke="#6e0978"></path><path d="M773 540L732 459.9L695 471.9Z" fill="#410466" stroke="#410466"></path><path d="M695 471.9L732 459.9L661 449.9Z" fill="#f6339a" stroke="#f6339a"></path><path d="M147 0L102 0L128 95.3Z" fill="#6e0978" stroke="#6e0978"></path><path d="M846 182.3L744 0L727 160.1Z" fill="#6e0978" stroke="#6e0978"></path><path d="M0 256.6L48 391.6L199 311.6Z" fill="#29035c" stroke="#29035c"></path><path d="M138 460.7L105 491.9L221 540Z" fill="#9c1287" stroke="#9c1287"></path><path d="M48 391.6L105 491.9L138 460.7Z" fill="#e02997" stroke="#e02997"></path><path d="M60 178.4L0 256.6L197 251.6Z" fill="#b2198d" stroke="#b2198d"></path><path d="M0 155.4L0 256.6L60 178.4Z" fill="#29035c" stroke="#29035c"></path><path d="M0 103.1L96 157.1L128 95.3Z" fill="#29035c" stroke="#29035c"></path><path d="M864 280.4L843 232.4L743 224.6Z" fill="#6e0978" stroke="#6e0978"></path><path d="M754 185.4L846 182.3L727 160.1Z" fill="#410466" stroke="#410466"></path><path d="M864 280.4L743 224.6L760 362.6Z" fill="#29035c" stroke="#29035c"></path><path d="M7 142.1L0 155.4L60 178.4Z" fill="#e02997" stroke="#e02997"></path><path d="M843 232.4L846 182.3L754 185.4Z" fill="#6e0978" stroke="#6e0978"></path><path d="M0 72.3L0 103.1L128 95.3Z" fill="#f6339a" stroke="#f6339a"></path><path d="M7 142.1L0 103.1L0 155.4Z" fill="#410466" stroke="#410466"></path><path d="M843 232.4L857 186.3L846 182.3Z" fill="#f6339a" stroke="#f6339a"></path><path d="M846 182.3L900 0L744 0Z" fill="#f6339a" stroke="#f6339a"></path><path d="M732 459.9L851 341.7L760 362.6Z" fill="#e02997" stroke="#e02997"></path><path d="M960 202.3L915 159.1L857 186.3Z" fill="#410466" stroke="#410466"></path><path d="M851 341.7L864 280.4L760 362.6Z" fill="#c92092" stroke="#c92092"></path><path d="M102 0L0 72.3L128 95.3Z" fill="#6e0978" stroke="#6e0978"></path><path d="M732 459.9L913 496.9L851 341.7Z" fill="#b2198d" stroke="#b2198d"></path><path d="M645 540L773 540L695 471.9Z" fill="#c92092" stroke="#c92092"></path><path d="M0 256.6L0 462.7L48 391.6Z" fill="#850d80" stroke="#850d80"></path><path d="M48 391.6L0 462.7L105 491.9Z" fill="#29035c" stroke="#29035c"></path><path d="M105 491.9L51 540L221 540Z" fill="#410466" stroke="#410466"></path><path d="M0 462.7L51 540L105 491.9Z" fill="#f6339a" stroke="#f6339a"></path><path d="M102 0L0 0L0 72.3Z" fill="#6e0978" stroke="#6e0978"></path><path d="M959 236.6L843 232.4L864 280.4Z" fill="#410466" stroke="#410466"></path><path d="M959 236.6L857 186.3L843 232.4Z" fill="#9c1287" stroke="#9c1287"></path><path d="M857 186.3L915 159.1L846 182.3Z" fill="#410466" stroke="#410466"></path><path d="M773 540L819 540L732 459.9Z" fill="#850d80" stroke="#850d80"></path><path d="M851 341.7L925 323.7L864 280.4Z" fill="#0a0251" stroke="#0a0251"></path><path d="M0 462.7L0 520.9L51 540Z" fill="#6e0978" stroke="#6e0978"></path><path d="M960 342.7L925 323.7L851 341.7Z" fill="#29035c" stroke="#29035c"></path><path d="M0 520.9L0 540L51 540Z" fill="#850d80" stroke="#850d80"></path><path d="M915 159.1L900 0L846 182.3Z" fill="#410466" stroke="#410466"></path><path d="M960 268.6L959 236.6L864 280.4Z" fill="#0a0251" stroke="#0a0251"></path><path d="M915 159.1L960 29.1L900 0Z" fill="#e02997" stroke="#e02997"></path><path d="M959 236.6L960 202.3L857 186.3Z" fill="#f6339a" stroke="#f6339a"></path><path d="M960 275.4L960 268.6L864 280.4Z" fill="#6e0978" stroke="#6e0978"></path><path d="M959 236.6L960 268.6L960 202.3Z" fill="#e02997" stroke="#e02997"></path><path d="M960 275.4L864 280.4L925 323.7Z" fill="#58066f" stroke="#58066f"></path><path d="M960 342.7L960 275.4L925 323.7Z" fill="#58066f" stroke="#58066f"></path><path d="M913 496.9L960 342.7L851 341.7Z" fill="#29035c" stroke="#29035c"></path><path d="M819 540L913 496.9L732 459.9Z" fill="#850d80" stroke="#850d80"></path><path d="M960 202.3L960 29.1L915 159.1Z" fill="#e02997" stroke="#e02997"></path><path d="M960 29.1L960 0L900 0Z" fill="#6e0978" stroke="#6e0978"></path><path d="M960 540L960 538.9L913 496.9Z" fill="#f6339a" stroke="#f6339a"></path><path d="M913 496.9L960 538.9L960 342.7Z" fill="#9c1287" stroke="#9c1287"></path><path d="M819 540L960 540L913 496.9Z" fill="#0a0251" stroke="#0a0251"></path></g></svg>